# xmcd
#
# Track frame offsets: 
#        150
#        14496
#        28633
#        45410
#        65175
#        80437
#        96486
#        114399
#        133771
#        147256
#        164534
#        186286
#        199009
#        215062
#        230021
#        245402
#        259593
#        275105
#        296027
#
# Disc length: 4157 seconds
#
# Revision: 0
# Processed by: cddbd v1.5.2PL0 Copyright (c) Steve Scherf et al.
# Submitted via: ExactAudioCopyFreeDBPlugin 1.0
#
DISCID=2c103b13
DTITLE=The Long Ryders - Final Wild Songs
DYEAR=2016
DGENRE=Country
TTITLE0=Looking For Lewis And Clark
TTITLE1=Lights Of Downtown
TTITLE2=WDIA
TTITLE3=Mason-Dixon Line
TTITLE4=Here Come's That Train Again
TTITLE5=Years Long Ago
TTITLE6=Good Times Tomorrow, Hard Times Today
TTITLE7=Two Kinds Of Love
TTITLE8=You Just Can't Ride The Boxcars Anymore
TTITLE9=Capturing The Flag
TTITLE10=State Of My Union
TTITLE11=Southside Of The Story
TTITLE12=Child Bride
TTITLE13=If I Were A Bramble And You Were A Rose
TTITLE14=Looking For Lewis And Clark (BBC TV Whistle Test)
TTITLE15=Lights Of Downtown (Captain's Mix)
TTITLE16=Capturing The Flag (Captain's Mix)
TTITLE17=Christmas In New Zealand
TTITLE18=Encore From Hell (Live)
EXTD=
EXTT0=
EXTT1=
EXTT2=
EXTT3=
EXTT4=
EXTT5=
EXTT6=
EXTT7=
EXTT8=
EXTT9=
EXTT10=
EXTT11=
EXTT12=
EXTT13=
EXTT14=
EXTT15=
EXTT16=
EXTT17=
EXTT18=
PLAYORDER=
